<?xml version="1.0" encoding="utf-8"?>
<!-- Generator: Adobe Illustrator 20.0.0, SVG Export Plug-In . SVG Version: 6.00 Build 0)  -->
<svg version="1.1" id="Layer_1" xmlns="http://www.w3.org/2000/svg" xmlns:xlink="http://www.w3.org/1999/xlink" x="0px" y="0px"
	 viewBox="0 0 100 79" style="enable-background:new 0 0 100 79;" xml:space="preserve">
<g>
	<path d="M86.1,48.5H13.9c-4.7,0-8.5-3.8-8.5-8.5s3.8-8.5,8.5-8.5h72.2c4.7,0,8.5,3.8,8.5,8.5S90.8,48.5,86.1,48.5z"/>
	<path d="M86.1,25H13.9c-4.7,0-8.5-3.8-8.5-8.5S9.2,8,13.9,8h72.2c4.7,0,8.5,3.8,8.5,8.5S90.8,25,86.1,25z"/>
	<path d="M86.1,72.1H13.9c-4.7,0-8.5-3.8-8.5-8.5S9.2,55,13.9,55h72.2c4.7,0,8.5,3.8,8.5,8.5S90.8,72.1,86.1,72.1z"/>
</g>
</svg>
